<svg viewBox="0 0 1338.4658203125 400" xmlns="http://www.w3.org/2000/svg"><g><g><g><g><g><line x1="40" y1="377" x2="35" y2="377" style="visibility: inherit;" fill="rgb(0, 0, 0)" stroke="rgb(204, 204, 204)" stroke-width="1px"></line><line x1="40" y1="350.07142857142856" x2="35" y2="350.07142857142856" style="visibility: inherit;" fill="rgb(0, 0, 0)" stroke="rgb(204, 204, 204)" stroke-width="1px"></line><line x1="40" y1="323.1428571428571" x2="35" y2="323.1428571428571" style="visibility: inherit;" fill="rgb(0, 0, 0)" stroke="rgb(204, 204, 204)" stroke-width="1px"></line><line x1="40" y1="296.2142857142857" x2="35" y2="296.2142857142857" style="visibility: inherit;" fill="rgb(0, 0, 0)" stroke="rgb(204, 204, 204)" stroke-width="1px"></line><line x1="40" y1="269.28571428571433" x2="35" y2="269.28571428571433" style="visibility: inherit;" fill="rgb(0, 0, 0)" stroke="rgb(204, 204, 204)" stroke-width="1px"></line><line x1="40" y1="242.35714285714283" x2="35" y2="242.35714285714283" style="visibility: inherit;" fill="rgb(0, 0, 0)" stroke="rgb(204, 204, 204)" stroke-width="1px"></line><line x1="40" y1="215.42857142857142" x2="35" y2="215.42857142857142" style="visibility: inherit;" fill="rgb(0, 0, 0)" stroke="rgb(204, 204, 204)" stroke-width="1px"></line><line x1="40" y1="188.49999999999997" x2="35" y2="188.49999999999997" style="visibility: inherit;" fill="rgb(0, 0, 0)" stroke="rgb(204, 204, 204)" stroke-width="1px"></line><line x1="40" y1="161.5714285714286" x2="35" y2="161.5714285714286" style="visibility: inherit;" fill="rgb(0, 0, 0)" stroke="rgb(204, 204, 204)" stroke-width="1px"></line><line x1="40" y1="134.64285714285717" x2="35" y2="134.64285714285717" style="visibility: inherit;" fill="rgb(0, 0, 0)" stroke="rgb(204, 204, 204)" stroke-width="1px"></line><line x1="40" y1="107.71428571428571" x2="35" y2="107.71428571428571" style="visibility: inherit;" fill="rgb(0, 0, 0)" stroke="rgb(204, 204, 204)" stroke-width="1px"></line><line x1="40" y1="80.78571428571425" x2="35" y2="80.78571428571425" style="visibility: inherit;" fill="rgb(0, 0, 0)" stroke="rgb(204, 204, 204)" stroke-width="1px"></line><line x1="40" y1="53.85714285714279" x2="35" y2="53.85714285714279" style="visibility: inherit;" fill="rgb(0, 0, 0)" stroke="rgb(204, 204, 204)" stroke-width="1px"></line><line x1="40" y1="26.92857142857146" x2="35" y2="26.92857142857146" style="visibility: inherit;" fill="rgb(0, 0, 0)" stroke="rgb(204, 204, 204)" stroke-width="1px"></line><line x1="40" y1="0" x2="35" y2="0" style="visibility: inherit;" fill="rgb(0, 0, 0)" stroke="rgb(204, 204, 204)" stroke-width="1px"></line></g><g transform="translate(30, 0)"><text x="0" y="377" dx="0em" dy="0.3em" style="text-anchor: end; visibility: hidden; font-family: Roboto, sans-serif; font-size: 12px; font-weight: 200;" fill="rgb(33, 33, 33)" stroke="none" stroke-width="1px">2</text><text x="0" y="350.07142857142856" dx="0em" dy="0.3em" style="text-anchor: end; visibility: inherit; font-family: Roboto, sans-serif; font-size: 12px; font-weight: 200;" fill="rgb(33, 33, 33)" stroke="none" stroke-width="1px">2.1</text><text x="0" y="323.1428571428571" dx="0em" dy="0.3em" style="text-anchor: end; visibility: inherit; font-family: Roboto, sans-serif; font-size: 12px; font-weight: 200;" fill="rgb(33, 33, 33)" stroke="none" stroke-width="1px">2.2</text><text x="0" y="296.2142857142857" dx="0em" dy="0.3em" style="text-anchor: end; visibility: inherit; font-family: Roboto, sans-serif; font-size: 12px; font-weight: 200;" fill="rgb(33, 33, 33)" stroke="none" stroke-width="1px">2.3</text><text x="0" y="269.28571428571433" dx="0em" dy="0.3em" style="text-anchor: end; visibility: inherit; font-family: Roboto, sans-serif; font-size: 12px; font-weight: 200;" fill="rgb(33, 33, 33)" stroke="none" stroke-width="1px">2.4</text><text x="0" y="242.35714285714283" dx="0em" dy="0.3em" style="text-anchor: end; visibility: inherit; font-family: Roboto, sans-serif; font-size: 12px; font-weight: 200;" fill="rgb(33, 33, 33)" stroke="none" stroke-width="1px">2.5</text><text x="0" y="215.42857142857142" dx="0em" dy="0.3em" style="text-anchor: end; visibility: inherit; font-family: Roboto, sans-serif; font-size: 12px; font-weight: 200;" fill="rgb(33, 33, 33)" stroke="none" stroke-width="1px">2.6</text><text x="0" y="188.49999999999997" dx="0em" dy="0.3em" style="text-anchor: end; visibility: inherit; font-family: Roboto, sans-serif; font-size: 12px; font-weight: 200;" fill="rgb(33, 33, 33)" stroke="none" stroke-width="1px">2.7</text><text x="0" y="161.5714285714286" dx="0em" dy="0.3em" style="text-anchor: end; visibility: inherit; font-family: Roboto, sans-serif; font-size: 12px; font-weight: 200;" fill="rgb(33, 33, 33)" stroke="none" stroke-width="1px">2.8</text><text x="0" y="134.64285714285717" dx="0em" dy="0.3em" style="text-anchor: end; visibility: inherit; font-family: Roboto, sans-serif; font-size: 12px; font-weight: 200;" fill="rgb(33, 33, 33)" stroke="none" stroke-width="1px">2.9</text><text x="0" y="107.71428571428571" dx="0em" dy="0.3em" style="text-anchor: end; visibility: inherit; font-family: Roboto, sans-serif; font-size: 12px; font-weight: 200;" fill="rgb(33, 33, 33)" stroke="none" stroke-width="1px">3</text><text x="0" y="80.78571428571425" dx="0em" dy="0.3em" style="text-anchor: end; visibility: inherit; font-family: Roboto, sans-serif; font-size: 12px; font-weight: 200;" fill="rgb(33, 33, 33)" stroke="none" stroke-width="1px">3.1</text><text x="0" y="53.85714285714279" dx="0em" dy="0.3em" style="text-anchor: end; visibility: inherit; font-family: Roboto, sans-serif; font-size: 12px; font-weight: 200;" fill="rgb(33, 33, 33)" stroke="none" stroke-width="1px">3.2</text><text x="0" y="26.92857142857146" dx="0em" dy="0.3em" style="text-anchor: end; visibility: inherit; font-family: Roboto, sans-serif; font-size: 12px; font-weight: 200;" fill="rgb(33, 33, 33)" stroke="none" stroke-width="1px">3.3</text><text x="0" y="0" dx="0em" dy="0.3em" style="text-anchor: end; visibility: hidden; font-family: Roboto, sans-serif; font-size: 12px; font-weight: 200;" fill="rgb(33, 33, 33)" stroke="none" stroke-width="1px">3.4</text></g><line x1="40" y1="0" x2="40" y2="377" fill="rgb(0, 0, 0)" stroke="rgb(204, 204, 204)" stroke-width="1px"></line></g></g><g transform="translate(40, 0)" clip-path="url(#clip_0)"><clipPath id="clip_0"><rect width="1298" height="376"></rect></clipPath><g><g><g><line x1="0" y1="0" x2="0" y2="377" fill="rgb(0, 0, 0)" stroke="rgb(66, 66, 66)" stroke-width="1px" opacity="0.25"></line><line x1="144.27444444444444" y1="0" x2="144.27444444444444" y2="377" fill="rgb(0, 0, 0)" stroke="rgb(66, 66, 66)" stroke-width="1px" opacity="0.25"></line><line x1="288.5488888888889" y1="0" x2="288.5488888888889" y2="377" fill="rgb(0, 0, 0)" stroke="rgb(66, 66, 66)" stroke-width="1px" opacity="0.25"></line><line x1="432.8233333333333" y1="0" x2="432.8233333333333" y2="377" fill="rgb(0, 0, 0)" stroke="rgb(66, 66, 66)" stroke-width="1px" opacity="0.25"></line><line x1="577.0977777777778" y1="0" x2="577.0977777777778" y2="377" fill="rgb(0, 0, 0)" stroke="rgb(66, 66, 66)" stroke-width="1px" opacity="0.25"></line><line x1="721.3722222222223" y1="0" x2="721.3722222222223" y2="377" fill="rgb(0, 0, 0)" stroke="rgb(66, 66, 66)" stroke-width="1px" opacity="0.25"></line><line x1="865.6466666666666" y1="0" x2="865.6466666666666" y2="377" fill="rgb(0, 0, 0)" stroke="rgb(66, 66, 66)" stroke-width="1px" opacity="0.25"></line><line x1="1009.9211111111111" y1="0" x2="1009.9211111111111" y2="377" fill="rgb(0, 0, 0)" stroke="rgb(66, 66, 66)" stroke-width="1px" opacity="0.25"></line><line x1="1154.1955555555555" y1="0" x2="1154.1955555555555" y2="377" fill="rgb(0, 0, 0)" stroke="rgb(66, 66, 66)" stroke-width="1px" opacity="0.25"></line><line x1="1298.47" y1="0" x2="1298.47" y2="377" fill="rgb(0, 0, 0)" stroke="rgb(66, 66, 66)" stroke-width="1px" opacity="0.25"></line></g><g><line x1="0" y1="377" x2="1298.47" y2="377" fill="rgb(0, 0, 0)" stroke="rgb(66, 66, 66)" stroke-width="1px" opacity="0.25"></line><line x1="0" y1="350.07142857142856" x2="1298.47" y2="350.07142857142856" fill="rgb(0, 0, 0)" stroke="rgb(66, 66, 66)" stroke-width="1px" opacity="0.25"></line><line x1="0" y1="323.1428571428571" x2="1298.47" y2="323.1428571428571" fill="rgb(0, 0, 0)" stroke="rgb(66, 66, 66)" stroke-width="1px" opacity="0.25"></line><line x1="0" y1="296.2142857142857" x2="1298.47" y2="296.2142857142857" fill="rgb(0, 0, 0)" stroke="rgb(66, 66, 66)" stroke-width="1px" opacity="0.25"></line><line x1="0" y1="269.28571428571433" x2="1298.47" y2="269.28571428571433" fill="rgb(0, 0, 0)" stroke="rgb(66, 66, 66)" stroke-width="1px" opacity="0.25"></line><line x1="0" y1="242.35714285714283" x2="1298.47" y2="242.35714285714283" fill="rgb(0, 0, 0)" stroke="rgb(66, 66, 66)" stroke-width="1px" opacity="0.25"></line><line x1="0" y1="215.42857142857142" x2="1298.47" y2="215.42857142857142" fill="rgb(0, 0, 0)" stroke="rgb(66, 66, 66)" stroke-width="1px" opacity="0.25"></line><line x1="0" y1="188.49999999999997" x2="1298.47" y2="188.49999999999997" fill="rgb(0, 0, 0)" stroke="rgb(66, 66, 66)" stroke-width="1px" opacity="0.25"></line><line x1="0" y1="161.5714285714286" x2="1298.47" y2="161.5714285714286" fill="rgb(0, 0, 0)" stroke="rgb(66, 66, 66)" stroke-width="1px" opacity="0.25"></line><line x1="0" y1="134.64285714285717" x2="1298.47" y2="134.64285714285717" fill="rgb(0, 0, 0)" stroke="rgb(66, 66, 66)" stroke-width="1px" opacity="0.25"></line><line x1="0" y1="107.71428571428571" x2="1298.47" y2="107.71428571428571" fill="rgb(0, 0, 0)" stroke="rgb(66, 66, 66)" stroke-width="1px" opacity="0.25"></line><line x1="0" y1="80.78571428571425" x2="1298.47" y2="80.78571428571425" fill="rgb(0, 0, 0)" stroke="rgb(66, 66, 66)" stroke-width="1px" opacity="0.25"></line><line x1="0" y1="53.85714285714279" x2="1298.47" y2="53.85714285714279" fill="rgb(0, 0, 0)" stroke="rgb(66, 66, 66)" stroke-width="1px" opacity="0.25"></line><line x1="0" y1="26.92857142857146" x2="1298.47" y2="26.92857142857146" fill="rgb(0, 0, 0)" stroke="rgb(66, 66, 66)" stroke-width="1px" opacity="0.25"></line><line x1="0" y1="0" x2="1298.47" y2="0" fill="rgb(0, 0, 0)" stroke="rgb(66, 66, 66)" stroke-width="1px" opacity="0.25"></line></g></g></g><g><g><line x1="0" y1="915.5714285714287" x2="1298.47" y2="915.5714285714287" fill="rgb(0, 0, 0)" stroke="rgb(153, 153, 153)" stroke-width="1.5px"></line></g></g><g><g><line x1="144.27444444444444" y1="0" x2="144.27444444444444" y2="377" fill="rgb(0, 0, 0)" stroke="rgb(153, 153, 153)" stroke-width="1.5px"></line></g></g><g><g><g><g><g><path stroke="rgb(255, 112, 67)" stroke-width="2px" d="M157.69196777777776,-54.32388065204556L158.99043777777777,9.117251713084501L159.6541002222222,-12.012211087263058L173.56215666666665,-31.94522583983088L173.87956044444445,54.85292802095703L174.19696422222222,19.848104778388116L176.33222600000002,9.139046676193983L176.73619444444444,32.999829779230396L176.9381786666667,75.34806530389038L177.51527644444445,51.54859715311151L177.86153511111112,-7.009630578354644L178.2077937777778,22.69970514417877L178.4386328888889,39.253642695177135L179.41969911111113,6.352407572348905L180.40076533333334,4.90922274214544L180.4584751111111,-39.78202155589817L180.83358866666669,38.407219706366206L180.94900822222223,-17.21821636587187L183.97877155555557,39.468492047303975L185.161822,24.171416563566762L186.31601755555556,-20.109622110715005L186.34487244444446,45.22246503946969L187.38364844444445,6.359411735633613L187.84532666666667,22.72462054096444L187.93189133333334,12.47818574934901L188.94181244444445,30.70859019523149L189.02837711111113,23.82229386224543L189.43234555555557,11.395747022999316L191.22134866666667,37.069779623250575L191.45218777777777,11.359756695126041L192.4621088888889,55.35391444915263L193.38546533333334,11.999361648497032L193.64515933333334,78.69455051410367L197.5694242222222,107.17337153994387L199.06987844444447,61.02095097274329L199.35842733333334,3.1009619688489183L200.2529288888889,56.03554649761877L200.83002666666667,64.98928497316945L200.85888155555554,61.781740141854506L204.00406444444445,25.87387487779843L204.26375844444448,88.86679855911717L208.01489400000003,51.24923404417129L211.18893177777778,37.87481229060735L212.34312733333334,77.35594813113462L214.5649537777778,96.75382900956663L214.70922822222224,40.796124479954976L215.0843417777778,57.580197029206346L215.3151808888889,65.9625808156418L215.40174555555555,99.3385570824649L216.49823133333337,73.14317325372599L218.6334931111111,25.267395236974853L218.662348,54.40249468306883L219.26830066666668,78.81764006918704L220.30707666666666,115.12005822992124L220.53791577777778,78.7471379041191L221.72096622222222,43.80037360658707L221.9806602222222,73.27268245278027L222.41348355555556,105.4691802587889L222.67317755555555,96.37204985233976L223.71195355555554,102.90314662016135L223.74080844444444,142.3538354263821L224.1447768888889,144.90329265902085L224.63530999999998,105.46461711754635L225.41439200000002,71.11231943949545L226.33774844444446,76.91283521428169L226.82828155555558,83.22320722282205L230.0600291111111,144.52560766908616L233.2340668888889,131.02655636507689L233.2629217777778,108.32412051697635L233.84001955555556,132.7273562980051L233.86887444444446,93.53985113744119L235.02307,107.73083163042548L236.581234,105.143787037419L237.10062200000002,104.05961598718167L237.79313933333336,99.62223428460238L238.48565666666667,117.36882281516706L238.57222133333335,126.47478554802576L241.11145155555553,144.05012424567704L242.49648622222225,91.48479368206658L244.77602244444444,123.51361184097614L245.26655555555556,134.14090959722887L246.01678266666667,125.02955717911128L247.17097822222223,143.65447250260516L248.15204444444447,108.99806079197762L248.6137226666667,90.06938386087606L249.71020844444445,96.36082739967367L249.79677311111112,99.15593381911359L249.91219266666667,125.86196641345127L250.1141768888889,102.79433628216323L250.20074155555554,102.73988260350201L250.74898444444446,129.39818835315376L251.383792,72.24428714855593L253.40363422222222,39.573112297297264L255.3080568888889,153.41834428796807L257.2413344444444,139.24476139063177L257.76072244444447,145.82423313935956L258.9726277777778,114.85006858328958L260.04025866666666,198.1808751701031L260.35766244444443,168.23069495219482L262.1178106666667,127.02999581512057L262.8391828888889,75.57582106131319L263.18544155555554,129.55872549353717L263.2720062222222,127.71647838130781L263.9068137777778,86.76348964534058L264.91673488888887,115.5954925568951L265.2341386666667,118.46925438541656L266.2440597777778,154.53743317215432L267.10970644444444,154.92511009941464L268.8698546666667,126.94468446113439L269.15840355555554,118.66374308648795L272.79411955555554,157.27013056978703L275.13136555555553,175.1095015132168L275.2467851111111,167.31886400414515L275.96815733333335,121.88420336053159L277.35319200000004,176.69321870853196L278.4208228888889,133.01916569300778L279.6038733333333,178.8653769464214L279.83471244444445,174.42027736472917L280.0944064444444,174.01209115617675L280.7580688888889,212.09927584656643L282.1142486666667,206.2446071934382L283.7012675555556,163.88401210145685L283.81668711111115,162.28383212947563L284.04752622222225,199.527187270881L285.144012,122.10531533198224L285.9519488888889,135.71734215624326L290.82842511111113,154.98643916954128L291.0881191111111,180.97449342890042L291.1458288888889,162.6275979410698L292.35773422222223,148.99576023467446L292.4731537777778,171.80676732098775L293.02139666666665,177.51438454665094L293.94475311111114,168.42920929763355L294.31986666666666,179.82278143768244L295.04123888888887,174.76558362159048L295.41635244444444,153.13530492949639L295.84917577777776,178.892089789522L296.1088697777778,119.55836263094552L297.0610811111111,172.88427747512927L297.75359844444444,208.07222639973912L297.8401631111111,163.63332560514067L298.9943586666667,145.02051251003928L300.1774091111111,168.19733187924083L301.38931444444444,168.648105188398L301.64900844444446,117.46520857528463L303.23602733333337,158.45761714055644L307.7950997777778,112.39172522324041L309.61295777777775,137.49376006949726L310.4208946666667,231.31004911566419L311.0845571111111,131.3514292392786L312.5561564444444,148.38572992253575L313.53722266666665,175.52016221515504L313.9123362222222,165.12321260713713L316.13416266666667,175.65375260575402L316.8555348888889,220.12102149065012L317.31721311111113,192.8252361688172L317.6634717777778,212.37686137059376L318.9330868888889,139.70583737897383L320.60667044444443,181.440600561604L321.38575244444445,201.0548229947431L321.501172,183.08673835927218L323.8961277777778,148.1217307660743L324.4155157777778,173.66269224843205L325.45429177777777,133.0899331845541L326.9836008888889,176.23452392424184L327.0413106666667,193.81227354565343L327.733828,161.96831967260334L327.7626828888889,209.25265331959872L327.90695733333337,219.14687415550145L328.0512317777778,174.90234135563335L332.6391591111111,198.81121625249457L333.30282155555557,168.52288076478402L333.67793511111114,159.52894656234955L333.82220955555556,171.4902594241049L334.28388777777775,167.68814696807286L334.4281622222222,178.39655972501728L334.68785622222225,225.6077548268699L335.14953444444444,199.47753538967586L336.823118,162.48115075687855L338.4678466666667,192.37194877112452L339.04494444444447,183.21929417335855L340.54539866666664,215.38524088665045L341.6995942222222,221.19880415420272L341.9304333333333,213.83976083381788L343.834856,195.33597634494734L343.9214206666666,184.76787223240365L344.2388244444445,227.6063037475258L345.9989726666667,212.18511402921956L346.1432471111111,199.79723904201268L346.20095688888887,235.89807301505422L347.81683066666665,193.7115092929003L349.63468866666665,174.37028016292922L349.7212533333333,174.52117718696164L349.89438266666673,166.51650107090458L350.99086844444446,196.73861916270718L352.23162866666667,199.38661172227268L353.5589535555556,216.96112151030454L354.1649062222222,227.68018725023225L355.14597244444445,226.8425088049987L356.01161911111114,177.0413476994901L356.4444424444444,256.8995631547879L356.8484108888889,232.8890931003468L358.83939822222226,195.7476777803302L359.6473351111111,222.29132055251887L359.7627546666667,206.8492728865456L359.82046444444444,200.55520047796924L360.16672311111114,188.08969289629346L360.8592404444444,184.75494546621482L361.2054991111111,249.6092526546799L361.60946755555557,201.46459696504294L361.92687133333334,203.10221207876808L363.36961577777777,182.31174149175618L363.68701955555554,190.8720411728204L364.6680857777778,200.49639631835078L364.8412151111111,211.70936094190554L365.3028933333333,241.73794034721388L367.23617088888886,171.058851356512L367.3227355555556,170.83336002477225L368.0729626666666,204.45720316156238L369.16944844444447,168.47802469026846L369.19830333333334,184.4924497356682L369.94853044444443,232.01427770215543L370.92959666666667,175.1087713935623L372.08379222222226,225.9419874172069L372.25692155555555,208.81626015352728L373.0648584444445,212.59371673544348L374.7095871111111,232.67826499935637L376.4408804444445,215.8010763501101L378.63385200000005,267.44040414652085L379.2686595555556,245.24646680354496L381.34621155555556,231.63115724856056L381.7213251111111,217.11903074352333L383.1063597777778,249.24599454014717L383.5103282222222,251.54560850720372L383.6546026666667,191.9920773197749L385.99184866666667,177.8059503879886L386.5689464444444,233.76263563197523L389.28130600000003,265.90138721507634L390.9260346666666,208.72162881239666L391.09916400000003,234.96605506428284L392.9458768888889,199.8857889848035L394.1289273333333,211.3581477042245L394.2443468888889,216.5384710259855L395.1388484444444,222.18724848712154L396.0044951111111,219.978076333812L396.812432,225.1283329780869L397.50494933333334,217.09195004205418L397.5626591111111,221.70103029901188L398.8611291111111,246.0317443979973L399.149678,169.49930798374882L400.2173088888889,192.65871112313178L400.4192931111111,268.02292592732994L401.5734886666667,183.04457247864678L403.5356211111111,198.07522224315053L404.14157377777775,210.65447732602385L404.92065577777777,221.47163378102778L405.64202800000004,239.74503231188913L407.45988600000004,223.01108820330344L408.35438755555555,244.35954228614827L410.08568088888893,265.99365614336176L411.23987644444446,257.39630053169304L412.3652171111111,223.53749131498108L412.71147577777776,209.16059790400627L412.9711697777778,221.1053948262641L413.4039931111111,215.33104393654287L413.9233811111111,211.18932040849597L414.32734955555554,233.5030941516575L414.7024631111111,217.27850483483698L414.84673755555553,185.3917607161825L415.13528644444443,202.36178070573365L417.1262737777778,202.3786757584464L419.4923746666667,221.92526493656425L419.7520686666667,207.87896117391796L420.3003115555556,225.2266832594267L423.3300748888889,249.24276697519701L423.3589297777778,212.9904818847745L424.5131253333334,183.6134298480801L425.6961757777778,210.37436966891264L425.72503066666667,200.43461582303445L426.24441866666666,219.2244073533747L427.4274691111111,246.6217166648069L428.11998644444446,220.66127175891575L428.49510000000004,253.4205467409542L428.9856331111111,220.81653761073605L429.7647151111111,214.11729164349603L430.4283775555556,235.53442310731558L431.32287911111115,246.24638313198855L431.351734,236.90545848235874L431.38058888888884,180.27319636130633L431.6691377777778,232.74598009438373L432.0442513333333,200.7793543271463L432.21738066666666,210.97588765969536L432.62134911111116,210.61192391143726L434.6411913333333,203.47883261634888L435.42027333333334,249.4780068079479L436.3147748888889,262.75904182946033L436.80530799999997,243.2641641628515L438.3346171111111,254.96023190152656L438.82515022222225,224.49511118123337L439.0271344444444,187.25591413343656L440.58529844444445,243.2871626749944L440.9027022222222,222.87109970092192L442.6917053333333,241.5167875144375L442.77827,215.4846108535055L442.8071248888889,221.89755227220095L444.22101444444445,237.09815289774284L445.6637588888889,194.38096081273568L445.8368882222223,231.72054505430643L445.8657431111111,237.26837350255644L446.03887244444445,178.89984728090286L447.27963266666666,220.65073047532024L447.7701657777778,221.49046808426152L449.010926,240.0659420646769L450.0208471111111,248.44269430223054L451.088478,283.0853166874835L451.3770268888889,273.9107063312148L451.4347366666667,244.80963785472704L453.2237397777778,288.4994407335941L453.5122886666667,237.7648258628238L453.71427288888896,200.26038614890496L455.07045266666665,237.30788190780086L457.1191497777778,195.70217995717204L462.34188466666666,270.32134045538703L462.4861591111111,244.2729506058778L462.71699822222223,257.17834137034345L463.2363862222222,252.214902607804L464.39058177777775,251.4157745650021L465.0830991111111,286.4354010599331L465.2562284444445,277.04288764470124L466.5835533333333,264.1401894804187L467.7954586666667,246.0853334437084L467.968588,228.6918818592624L468.1994271111111,197.6071336142579L471.2291904444445,256.10811661264466L473.04704844444444,260.01648047368263L473.33559733333334,289.3368145687643L473.47987177777776,293.12729269130193L474.460938,282.31651038952316L474.98032600000005,269.359016771674L478.356348,253.91252385321582L479.30855933333333,247.35291171556972L481.7612248888889,255.3695831733604L482.91542044444446,211.4390570040628L483.4925182222222,259.64246468831993L483.75221222222217,259.98106323389993L484.3581648888889,240.9424227058139L485.31037622222226,270.0368984343268L486.1183131111111,249.65443996217326L486.6954108888889,237.1573691345488L486.95510488888885,290.1916192640459L489.2346411111111,304.79790776096246L489.7251742222223,258.69809239536715L491.31219311111107,233.11532472770025L492.7260826666667,254.6816310155438L495.58271666666667,263.75141521327475L495.6981362222223,221.79321367156243L497.31401,223.2183670509752L498.352786,245.60260381957772L499.24728755555554,269.1898104863336L499.30499733333335,239.8753984088923L499.651256,225.044478805152L500.7477417777778,293.89678247843216L501.90193733333336,286.61564352435187L502.01735688888886,307.3600009800757L502.07506666666666,240.50931986028405L502.6810193333333,254.86403480166945L502.7098742222222,231.84339537699117L503.14269755555557,268.30858926271844L503.48895622222227,267.2287142221866L504.26803822222223,329.86542189143734L504.32574800000003,247.33372606685606L504.3834577777778,227.9889743003847L506.51871955555555,262.98869648581405L507.87489933333336,276.9932907974961L509.2310791111111,247.62971510420863L510.96237244444444,238.61046387310316L513.0976342222222,251.6576932631625L513.3573282222222,236.53467920009166L516.531366,240.3098375467736L516.6467855555555,280.15774971197425L517.7721262222223,258.5007425559535L518.5800631111111,260.3941354723013L518.6954826666667,273.9363305102123L519.3014353333333,259.58373070742937L519.6765488888889,267.29758327064576L520.0805173333333,284.3067112510982L520.7730346666667,298.18592047047093L522.0426497777778,247.27148770686497L524.8127191111112,201.11243505439145L526.919126,214.92096350711813L528.1598862222222,232.32219618330396L529.4583562222222,263.83756465870204L530.5836968888889,269.29562528869565L531.4493435555555,311.1101523120249L532.5169744444445,311.53511374078784L534.4502520000001,252.61714285440922L535.2581888888889,247.6403511690463L535.489028,280.81944385409076L537.3645957777778,238.55402432541948L537.9128386666666,244.75882681352735L538.0571131111111,233.0035466564851L542.5296208888889,201.93859710594475L543.8858006666667,239.0587692040159L545.0688511111111,264.3136510591108L545.8190782222222,226.97543729066203L547.4060971111111,267.23630569807716L547.665791111111,257.8349522220774L548.4160182222222,245.02861022444893L549.5702137777778,303.69831120982303L553.3502042222223,241.61327584676587L553.667608,235.45973656505967L554.186996,266.3008815938298L555.6874502222222,259.7096233982919L555.8894344444444,283.0657220770951L558.4575195555556,259.10130126632225L558.6595037777778,271.1977528673684L559.7559895555556,276.55394476400653L559.9291188888889,317.36661468527683L560.3330873333333,275.0243775022496L560.5927813333334,251.23597475351139L563.6802544444445,245.76388121501176L564.8921597777778,225.53210427417613L566.2194846666666,299.8460469824394L566.8542922222222,242.5577605594358L569.7397811111111,286.98986999903735L570.1726044444445,240.03830442945943L571.8750428888889,280.98903621971033L572.7983993333334,303.62434712718124L573.1735128888889,302.2661085766951L573.2889324444445,290.7196552895344L574.8182415555556,237.3130154071106L574.9336611111111,271.32201278945945L575.3664844444445,327.60480774971256L577.6460206666667,301.65423899352L578.9733455555556,303.81292490434856L579.0022004444444,303.9871504423094L579.11762,256.03240475636335L580.2718155555556,281.6528022786115L580.675784,286.4276679051673L581.0797524444445,304.56736293431277L581.5125757777778,268.8915461044363L582.1762382222222,228.20481836504857L582.4359322222222,233.89878345606436L582.8399006666667,262.5160527989926L586.7353106666667,264.43678106539153L587.1392791111111,288.7785383064939L587.5432475555556,272.8363040271365L587.8029415555555,319.5498680967948L589.1879762222222,246.25686544025646L589.8227837777778,298.1259486574836L590.2556071111112,287.00412678165895L590.4287364444444,323.25499476076493L591.2366733333333,285.20929949640873L594.69926,257.7489915513987L595.5071968888889,274.15704392541534L596.3728435555556,209.1397075045489L597.6424586666667,259.7085619461345L597.9310075555555,273.24856468242655L598.7100895555556,268.6655819241442L599.0274933333334,259.13316586157123L599.9797046666667,256.98774570587483L600.7587866666667,296.4825479919073L601.0761904444445,296.7638063912568L602.2880957777778,268.6641653978252L603.7019853333334,238.43481664207178L606.8760231111112,265.2710341698381L608.1456382222223,269.7186663246388L609.3286886666667,258.41654773958817L611.2908211111112,243.25897673533427L611.319676,259.74313542494724L612.8489851111111,312.5879768644659L612.9066948888889,321.33023232975535L613.0798242222222,271.66787830607365L614.984246888889,257.9079060597251L615.9364582222222,266.47905456707224L617.2637831111111,263.7282619463394L617.8120260000001,278.604756401245L618.2737042222222,236.48164920358064L623.4098744444444,300.28553837479564L627.0455904444444,293.6146852368565L627.16101,281.81146863995275L630.017644,231.58960833404868L630.9410004444445,318.31619026387295L631.344968888889,291.5033740027821L631.4315335555556,329.18746799138154L632.1240508888889,314.3367036957331L633.2782464444444,318.735273554174L633.393666,286.1060624376972L634.8652653333334,305.9942087474246L635.2692337777778,275.18959226971714L636.3657195555556,299.19718518354716L637.0005271111112,289.1384511272894L638.2701422222223,260.78175481907346L638.4432715555556,265.39407962376987L638.4721264444445,258.0448448351932L638.9338046666667,259.936335112142L639.2800633333334,305.8749710348137L641.4153251111112,278.2700248114131L642.0212777777779,290.62031872481214L642.3963913333333,354.98834374371324L642.6849402222222,268.3867075344327L642.9157793333334,291.4659842389861L646.1763817777778,307.5419041272376L647.2440126666667,258.51032930433496L649.6678233333333,296.9131387692242L651.0528579999999,293.94606920114194L653.0438453333334,315.7828552928761L653.0727002222222,270.8280178390731L654.1691860000001,284.6977681983211L654.659719111111,289.3330844525958L654.9194131111112,267.58718111211124L655.9004793333334,312.07085205588226L656.9681102222223,296.0719196910989L658.295435111111,336.9572565995154L659.9978735555555,325.873167808104L660.2287126666666,301.9542779331511L660.3441322222222,290.38448250727123L661.7868766666668,270.5759894726985L663.8067188888889,269.14573567144066L663.8932835555556,253.4609634156739L664.6723655555555,307.59697504317387L666.2016746666667,325.2454391424914L666.8076273333332,317.79890703087506L667.153886,280.61112894586176L667.3847251111112,299.90176888782895L667.5001446666666,289.06190218041934L667.6155642222222,325.61018452712665L669.6354064444445,260.1029593102875L671.6263937777777,321.2378352265118L673.2422675555556,345.62308414743126L673.6173811111112,279.17329900005865L675.3486744444444,227.3246387426044L676.0411917777778,232.2342261877184L676.4740151111112,222.7201020736805L677.1665324444446,306.99056052277166L677.541646,328.4331410305433L677.8013400000001,318.6030704465546L678.7246964444445,280.52997249481604L681.4370560000001,302.2158719739281L681.5813304444445,267.13024008737347L681.956444,259.319587574272L682.2738477777779,278.514757365181L685.5344502222222,309.69125936359205L685.5633051111112,252.08971022669408L685.7364344444444,313.8995484865212L685.8229991111111,346.7631051895618L686.1692577777778,322.9870462714482L686.6020811111111,290.1725886233943L689.747264,281.3907169983359L692.2576393333334,288.00364805084183L693.642674,295.4300727489395L695.3739673333333,261.91427848923524L695.6625162222222,324.1292588256016L695.7779357777778,310.6265010806364L695.8067906666668,356.4558707959259L698.5480051111111,300.5025814647637L700.5389924444445,316.38264525727925L701.722042888889,270.09195080117496L703.3956264444445,328.52587658370334L704.2324182222222,273.15826775836115L704.6363866666667,305.0758144107341L706.887068,298.78899155805743L706.9736326666666,225.49329331068435L708.2721026666667,308.27076037534283L710.3207997777778,300.1066160834775L710.782478,253.3255116587846L711.3884306666666,359.17094272819406L711.5904148888889,279.49926438152687L716.7842948888889,291.2085786847265L717.3613926666667,331.0590697676867L718.3424588888888,281.29683294810513L718.804137111111,304.8842783865094L719.121540888889,316.9950779492762L720.8239793333333,275.38691122668496L720.8528342222222,269.23450967738165L720.9682537777778,283.86916146139345L721.3433673333334,266.2455750155992L721.7761906666666,322.94346765668774L723.5363388888888,294.40386312975227L725.2387773333334,332.2797578641683L730.3460926666667,315.1440039138078L731.817692,341.2938760296182L732.7410484444445,312.87431858808617L733.0007424444444,325.9997311151865L733.5489853333332,272.9470147926127L734.0683733333334,273.5822586460226L735.5976824444444,258.6540394170503L736.1747802222222,305.67878716551684L736.8095877777778,326.402618564365L737.4732502222222,311.01357855138L737.9637833333334,319.2971942592117L738.050348,298.3578526117378L738.1369126666667,284.98635522224686L739.2045435555555,300.39835261046227L740.0124804444445,286.998890447756L740.5318684444444,319.09321511317063L740.5895782222221,295.4486293407679L743.3019377777778,309.4261880298264L744.0810197777778,308.9616869116736L744.8312468888889,296.08666319773386L745.5526191111111,284.48911556091474L745.6391837777778,327.1864955226533L748.697802,365.767055567698L748.8132215555556,261.6842710756846L749.246044888889,298.21582017582244L749.3037546666666,291.05031284582316L749.4480291111112,257.28791240325245L749.6211584444444,315.63537079581084L750.2271111111111,299.9594233443188L751.265887111111,296.178567522501L751.7275653333334,242.73000762107625L753.9493917777777,265.3576649749739L754.9881677777778,298.78965975600363L755.219006888889,328.0166294563517L755.3921362222222,262.4065015666614L756.1423633333334,351.7880819788628L756.2577828888889,355.8207376893778L756.9503002222223,277.1543800757792L757.2677040000001,298.1336549139327L757.9313664444444,265.8433646023123L759.2009815555556,288.3481172020635L761.4805177777778,257.2916074516408L762.3173095555555,265.711953286215L763.6446344444445,247.2074568837463L767.0206564444444,317.93751685271656L767.0783662222223,301.3181250663955L767.3380602222222,312.42816320295145L767.4534797777778,313.21462678313776L767.4823346666666,277.9452498081022L767.6843188888889,329.14963184448413L768.1459971111111,270.38864156220615L769.733016,289.629113940597L769.7907257777778,310.9503783909364L771.0026311111111,331.47237599973926L771.4065995555555,330.8953767786745L773.657280888889,341.93516972786534L773.8592651111112,306.9294875356906L774.6094922222222,359.238737122484L780.8998580000001,310.14916799914397L781.5923753333333,256.2295188743803L782.3714573333334,286.3131895663593L783.006264888889,287.7804835942497L783.2948137777778,304.73047589094455L783.7564920000001,298.7479975916137L785.6897695555556,322.47602565934756L786.9593846666667,299.58708347753924L787.3056433333333,316.9597381602524L787.5076275555555,305.4389826976753L787.9404508888889,327.64425405369155L789.9891480000001,358.862739935012L790.0468577777779,283.2951282447562L791.1144886666666,311.9921708115352L792.4995233333333,293.63755931373777L793.9134128888888,297.33842202485783L794.432800888889,264.3616253722578L795.442722,266.9090086481138L796.5103528888889,309.32552457637814L797.6934033333333,314.20370203716936L799.3381320000001,278.1708314751188L800.896296,309.0994039333603L801.6176682222223,324.75615614395963L805.6573526666667,369.1966707423621L806.4364346666666,367.94818278340244L807.4463557777777,369.1641534875293L809.466198,339.9108964230164L809.6104724444444,312.86960397963776L809.985586,288.02910246847176L810.6492484444445,287.11640229242494L810.9955071111111,316.70424011135873L815.4968697777778,305.7269123712355L816.5356457777777,301.9354647819354L817.1704533333333,324.9598426691178L817.4590022222222,276.43242580140185L819.6519737777778,275.6515587258275L819.6808286666667,326.4804274695108L822.3643333333333,305.7266494563276L824.9324184444446,301.56960610355077L824.9901282222222,314.30399530196445L826.5482922222222,319.95959398550275L826.6348568888889,303.8674327202089L828.6546991111111,330.8782947098542L831.5113331111112,294.3594341024233L835.4067431111112,351.560660222537L837.542004888889,343.2039450988612L838.8116200000001,307.345125333027L838.9847493333334,297.66617150050223L840.2832193333334,310.56223080210907L843.1398533333333,301.336927696821L847.0641182222223,303.2733053530417L847.6989257777778,329.1920298773162L848.0740393333334,290.60425518234604L849.3436544444444,262.835286269977L850.3247206666667,292.091817282351L850.4401402222222,313.9586232646755L850.988383111111,296.20733725516067L854.2778404444445,286.33501330104855L855.1434871111112,258.1235111628431L857.1056195555554,327.20363336773096L857.509588,320.5364109693279L858.6637835555556,352.6379596595333L860.3950768888889,322.9245317944394L860.6836257777778,334.8611265981807L861.0010295555555,320.7393575553385L861.1164491111111,372.0947262273163L862.0398055555555,326.6821148346476L862.2417897777777,309.4611042234573L862.8477424444445,331.6975023494255L863.8576635555556,319.333383937977L864.4347613333333,320.9065325312793L864.4924711111112,295.53291662321976L864.9830042222221,326.1235371684512L865.3869726666667,322.70461599519507L867.1759757777778,344.82310578100225L867.2336855555556,309.65416657974527L868.8784142222222,265.8698667811817L871.0425308888889,281.7410330589065L872.831534,297.0473078897955L877.1309124444444,301.2269294050987L878.4582373333334,330.5046792292429L879.1218997777778,315.54329390541733L883.3058586666667,331.0381564027425L884.3734895555556,336.54208326229286L884.7197482222223,332.9550698797867L885.4699753333333,347.2882393023905L885.9316535555555,324.4923659677293L885.9893633333334,332.6141327984303L886.2202024444445,319.6000111999428L886.2779122222223,318.4370851963923L887.4898175555556,331.682751062867L889.1345462222223,302.2713299112722L889.5673695555555,307.2507065211352L889.5962244444445,316.8587965061236L891.1255335555555,292.0570082758664L891.8180508888889,331.2467376378802L892.1065997777778,312.7088550457528L892.4528584444445,310.4275993010053L894.2130066666666,332.7570620378854L896.1174293333335,322.46008019841014L896.3771233333334,305.6178535979691L897.3004797777778,328.2370978797861L897.5601737777778,308.87722376915076L897.791012888889,348.5165266491526L898.021852,328.11501731390416L898.9163535555555,252.4765230358583L898.9740633333333,252.53782037421226L902.0903913333333,289.2942110221932L902.1481011111111,314.45771072807963L902.8694733333334,307.6565604894243L903.244586888889,333.5761000157036L903.3022966666666,368.29644477830874L903.5619906666666,320.03555243856067L905.3798486666667,328.6908609139075L906.6494637777778,318.99882503987607L906.7937382222221,278.0236397388354L908.669306,317.0015619962684L910.3717444444445,339.5801872467138L911.4393753333333,338.31366380123836L911.5836497777779,322.0825959543848L911.7279242222222,306.21988195407044L912.6801355555556,303.3373662421566L913.1418137777778,309.755536832795L914.1517348888889,338.8852545710303L914.4402837777778,307.54740070561434L914.4979935555556,322.7152053765436L914.6134131111111,318.14095300203473L914.7288326666667,327.1171121073631L916.229286888889,380.0108676111347L917.9894351111112,341.9504269248842L918.01829,365.0279169779853L918.0471448888889,318.0823812149066L920.8749240000001,296.201235526252L922.4907977777777,310.65425758615874L923.7604128888888,313.9822154946121L924.1932362222223,311.597469405778L924.7414791111112,340.70157282577844L925.0588828888889,318.0009448790618L926.3573528888888,334.31690591195013L926.9055957777778,358.64207362998894L927.3961288888889,340.3963551267332L932.2437502222223,344.81742461143637L933.9461886666668,350.36278680568586L934.7541255555556,270.47857498633454L936.1103053333334,326.14954440161614L936.19687,309.5466814482008L936.456564,293.6401180101182L938.3898415555557,280.5084310643042L938.8515197777779,323.0679121831675L939.0246491111112,334.31807627359467L941.4196048888889,330.0432795557774L941.5350244444445,298.9399927587774L942.1409771111112,291.9715994551888L943.6991411111111,270.5768499619684L945.805548,326.3835179993683L946.2095164444445,314.5814631772008L947.1617277777779,318.91558782428643L947.3925668888888,353.4354971802908L947.5079864444444,316.40712343768917L949.1527151111111,333.2980746266404L949.210424888889,380.64748898482446L949.8163775555555,346.50355600691114L951.4322513333334,383.6720082002685L952.3844626666668,321.818609294897L953.5098033333333,359.5754468402424L955.154532,303.046929220514L958.0688757777777,331.35162286384343L958.6171186666667,315.3173553445449L962.685658,282.401919404609L965.2537431111111,330.7305068384976L965.4845822222222,339.1594361386953L967.0716011111111,324.94014820233156L967.619844,335.7922748926519L969.0914433333332,347.19179777854333L969.95709,336.7247321683324L970.3322035555556,290.95371050312923L975.0644053333334,292.54359651261774L975.122115111111,319.514614143588L976.8534084444445,341.48825894214076L977.6613453333333,352.6219691909966L980.2582853333333,314.5581581707342L980.3159951111111,307.51413585675573L980.604544,343.7009826962373L982.7109508888889,341.50734443569695L984.499954,319.23554555004L984.7019382222222,339.6632069166491L985.6830044444445,326.0146312379369L988.5396384444446,397.77059290036965L990.0112377777779,379.1799110737644L991.1365784444446,344.8274775686954L991.251998,335.81808786852497L992.7235973333333,328.5460698248851L993.5026793333334,300.486498736963L994.3971808888889,333.4644584205152L994.5414553333334,336.8023147636508L995.2051177777779,350.72631123296094L996.0996193333334,344.9858203466716L997.3692344444444,364.83054969141216L998.9562533333333,348.7608588966743L999.4179315555556,323.21295051325575L1000.4278526666667,325.05203660003457L1000.6009819999999,348.76627103235984L1000.9472406666667,322.07076046882867L1001.6686128888889,313.2183936383333L1003.3999062222222,322.4359165833115L1003.6884551111111,296.53228115093214L1003.8904393333333,302.7664830474988L1004.3809724444445,309.31612445106725L1005.0446348888888,362.0016725417478L1005.535168,328.3182919988973L1006.2853951111111,378.01166068613975L1007.4395906666667,350.15884819966595L1008.8534802222222,303.99281742700265L1009.170884,346.9003076668202L1009.8922562222222,297.8866718724041L1011.50813,328.9285451474607L1011.8543886666666,339.36511037976504L1012.2295022222222,330.2301945400338L1015.692088888889,360.94176710476944L1016.9328491111111,363.8521909252298L1017.2502528888889,335.20001003475465L1017.3079626666666,351.24686845706395L1017.4233822222222,366.59353590816124L1018.5775777777778,339.5905709232425L1019.5297891111111,364.06615259949814L1019.9914673333333,338.06322489287334L1020.5397102222222,300.7383160028614L1022.1267291111111,305.52238639341215L1025.2142022222222,329.22822251407024L1027.4071737777779,347.35098467378424L1027.6380128888889,363.36257538095947L1027.6668677777777,353.8627017142609L1029.8309844444445,344.15372967505664L1030.206098,361.0542307040129L1030.6100664444446,326.5583947612449L1031.5911326666667,332.655442376021L1034.4766215555555,345.1952294701637L1035.659672,320.19138985541576L1036.438754,334.33628549866114L1037.1601262222223,291.1943179196403L1037.4198202222221,324.11589564100876L1037.5929495555556,287.59092342454323L1037.8237886666668,322.6908317631974L1038.025772888889,340.39419230300297L1038.6028706666666,319.10157342093436L1038.9491293333333,298.45785811297037L1039.785921111111,274.35181641583216L1042.1808768888889,328.42658226307015L1044.8643815555556,350.04197088299816L1045.8165928888889,335.5617449155507L1047.836435111111,329.96402657377405L1048.5000975555556,352.3684438000367L1049.6254382222223,294.6521146298514L1050.6065044444445,338.2316931918902L1052.308942888889,312.10615707546964L1052.568636888889,321.65402991584716L1053.6939775555556,308.7185423521678L1055.1944317777777,303.71714872496625L1056.2909175555556,309.6295539135036L1056.9257251111112,337.9900723069449L1057.8202266666667,295.83819874974296L1058.8590026666666,327.4449309419891L1058.9744222222223,345.3800939396791L1059.2052613333333,322.9447238898251L1061.0231193333334,331.0633899692234L1061.109684,346.8510708923569L1063.5334946666667,338.8085037430584L1064.1394473333335,337.9458227305181L1064.485706,306.79783678269723L1064.8031097777778,315.25709573540297L1065.264788,312.662843233607L1065.6687564444444,301.9703958408734L1066.2747091111112,323.0496534370641L1066.9383715555557,338.52012173083295L1067.4577595555556,355.89082963388853L1068.0348573333333,332.94023839972743L1072.6227846666666,320.2420450259301L1072.6804944444445,340.2523513119752L1073.6327057777778,327.38369379877815L1074.9600306666666,304.0979518835215L1077.4126962222222,306.02023352311153L1079.2305542222223,348.27057862525396L1082.2603175555555,310.67464616742734L1082.664286,297.5440826847863L1084.0493206666667,323.055267983704L1085.4055004444444,294.65589341651537L1086.7905351111112,324.67860537863845L1087.5984720000001,330.43713610010286L1089.156636,311.16297793971955L1091.0322037777778,355.847121285181L1091.0610586666667,379.14777023004643L1091.4073173333334,348.75813654721196L1091.4361722222222,335.4658983989305L1093.6579986666668,326.55334995324773L1093.831128,354.6895744861429L1095.5047115555556,325.72651976608944L1096.0818093333332,353.1710132042923L1096.8320364444444,384.8606585390606L1097.8419575555556,367.05887842297875L1100.554317111111,327.54669699958583L1101.823932222222,352.8418326167004L1102.978127777778,330.79358066097535L1104.2765977777779,378.7073577698876L1104.5362917777777,336.39180332646396L1106.613843777778,397.0813637921973L1107.8257491111112,348.8017349918246L1108.2585724444446,337.2929182747906L1108.402846888889,332.21791724022194L1108.7779604444445,350.5722649796122L1109.2107837777778,330.5578249480832L1111.6345944444445,305.38143461589607L1116.713054888889,360.7410643627785L1116.943894,309.53531309495764L1118.1269444444445,362.7988349740708L1118.1557993333333,359.7639231194772L1119.1080106666666,341.24691265295485L1119.6562535555556,352.19549513521235L1120.4353355555556,339.55858113598265L1121.2721273333334,345.7344971094751L1121.4164017777778,370.3398762801074L1121.4741115555555,381.45919137802167L1122.0512093333334,338.7287575315298L1125.3118117777778,337.2225486133351L1125.6292155555557,330.64564836163254L1125.9466193333333,338.8456208215661L1127.851042,310.5808397352931L1127.9087517777778,372.2385681015463L1128.1973006666667,394.0653145093449L1128.4281397777777,363.8066615695368L1129.438060888889,351.2029047626015L1131.0250797777778,342.5413401132706L1133.3046160000001,358.2686072549973L1133.4488904444445,327.36716561706L1135.8438462222223,319.4370321315469L1138.7293351111111,337.2536120200086L1139.046738888889,333.8997718536966L1139.7392562222221,356.08253829713755L1142.3650511111111,347.9597800466244L1142.422760888889,333.93284892743554L1143.2884075555555,302.6287496333377L1143.3172624444444,361.8208968917869L1144.1251993333333,342.52068265585734" style="fill: none;" fill="none"></path></g></g></g></g><g opacity="0.2"><g><g><g><path stroke="rgb(255, 112, 67)" stroke-width="2px" d="M157.69196777777776,-47.40647755350389L158.99043777777777,25.07678529194422L159.6541002222222,-17.327632869992925L166.31957955555555,-65.37264496939525L167.4737751111111,1.0487899099077258L169.26277822222224,-72.76404700960435L173.56215666666665,-30.005422455923934L173.87956044444445,76.6882583413805L174.19696422222222,11.042135477065997L176.33222600000002,6.445028305053669L176.73619444444444,39.00235469000678L176.9381786666667,86.00137611797877L177.51527644444445,45.5614969049181L177.86153511111112,-21.74079925673351L178.2077937777778,30.173518010548165L178.4386328888889,43.41802498272486L179.41969911111113,-1.9243737288884113L180.40076533333334,4.546168736049083L180.4584751111111,-51.02475009645738L180.83358866666669,58.076853615897036L180.94900822222223,-31.211598907198237L183.97877155555557,53.72885298728943L185.161822,20.32321609769545L186.31601755555556,-31.249157496861073L186.34487244444446,61.65769597462244L187.38364844444445,-3.4171511105129175L187.84532666666667,26.84152538435798L187.93189133333334,9.900546959468272L188.94181244444445,35.29471196447096L189.02837711111113,22.089946474347784L189.43234555555557,8.269669532775836L191.22134866666667,43.52845365660529L191.45218777777777,4.892028774533941L192.4621088888889,66.42128079278126L193.38546533333334,1.092897176742512L193.64515933333334,95.4726893901825L197.5694242222222,114.33763064656935L199.06987844444447,49.410642419542555L199.35842733333334,-11.469648531505099L200.2529288888889,69.35200643539429L200.83002666666667,67.24172731808252L200.85888155555554,60.97483587265015L204.00406444444445,16.840732301984502L204.26375844444448,104.71357910973683L208.01489400000003,41.78599190711971L211.18893177777778,34.51028316361561L212.34312733333334,87.28799857412062L214.5649537777778,101.6336463519505L214.70922822222224,26.719155005046275L215.0843417777778,61.80247310229707L215.3151808888889,68.07129062925063L215.40174555555555,107.73476638112746L216.49823133333337,66.5533457824162L218.6334931111111,13.223551205226329L218.662348,61.731850113187505L219.26830066666668,84.95962282589502L220.30707666666666,124.25245629038129L220.53791577777778,69.59700400488715L221.72096622222222,35.009009872164015L221.9806602222222,80.6868677820478L222.41348355555556,113.56867470060072L222.67317755555555,94.08353519439697L223.71195355555554,104.54613842282973L223.74080844444444,152.27822647775923L224.1447768888889,145.5446454797472L224.63530999999998,95.5432481765747L225.41439200000002,62.4705023765564L226.33774844444446,78.37203880718775L226.82828155555558,84.81067252159119L230.0600291111111,159.94711266245162L233.2340668888889,127.63067487307954L233.2629217777778,102.6129946027483L233.84001955555556,138.86634302139282L233.86887444444446,83.6816677365984L235.02307,111.30077791213989L236.581234,104.49297857284546L237.10062200000002,103.78687708718434L237.79313933333336,98.5059467724391L238.48565666666667,121.8332336970738L238.57222133333335,128.76552210535323L241.11145155555553,148.4714547566005L242.49648622222225,78.26122491700306L244.77602244444444,131.5709240436554L245.26655555555556,136.81435997145516L246.01678266666667,122.73746476854596L247.17097822222223,148.3398391859872L248.15204444444447,100.27973944800239L248.6137226666667,85.30760155405316L249.71020844444445,97.94353096825733L249.79677311111112,99.85908324377876L249.91219266666667,132.58025496346607L250.1141768888889,96.99134046690803L250.20074155555554,102.72618399347577L250.74898444444446,136.10447052546908L251.383792,57.86639710835047L253.40363422222222,31.35420598302565L255.3080568888889,182.05775809288025L257.2413344444444,135.67919172559462L257.76072244444447,147.47939436776295L258.9726277777778,107.0580697400229L260.04025866666666,219.14394416127882L260.35766244444443,160.69629417146956L262.1178106666667,116.66536436762128L262.8391828888889,62.631779602595714L263.18544155555554,143.1389054570879L263.2720062222222,127.25303448949538L263.9068137777778,76.4611733300345L264.91673488888887,122.8485996723175L265.2341386666667,119.19219071524482L266.2440597777778,163.6109049320221L267.10970644444444,155.02263583455766L268.8698546666667,119.9058039188385L269.15840355555554,116.58055257797241L272.79411955555554,166.98212541852678L275.13136555555553,179.59725315230233L275.2467851111111,165.35901652063643L275.96815733333335,110.45445769173756L277.35319200000004,190.48121881484985L278.4208228888889,122.03232632364545L279.6038733333333,190.39865412030898L279.83471244444445,173.30204830850874L280.0944064444444,173.90940601485116L280.7580688888889,221.68065772737776L282.1142486666667,204.7717806611742L283.7012675555556,153.22759205954415L283.81668711111115,161.881283726011L284.04752622222225,208.89629163060866L285.144012,102.62872426850453L285.9519488888889,139.14164427348544L290.82842511111113,159.8338590690068L291.0881191111111,187.51216414996554L291.1458288888889,158.01217116628374L292.35773422222223,145.5664744036538L292.4731537777778,177.5452058996473L293.02139666666665,178.95021816662378L293.94475311111114,166.14370213236128L294.31986666666666,182.68899921008517L295.04123888888887,173.49337240627833L295.41635244444444,147.693895646504L295.84917577777776,185.37158135005404L296.1088697777778,104.63210586139131L297.0610811111111,186.29918221064975L297.75359844444444,216.9242636135646L297.8401631111111,152.4540777206421L298.9943586666667,140.33819031715393L300.1774091111111,174.02779582568576L301.38931444444444,168.76150373050143L301.64900844444446,104.5894110543387L303.23602733333337,168.76985008375985L307.7950997777778,100.80318420273915L309.61295777777775,143.8085397992815L310.4208946666667,254.91089279311043L311.0845571111111,106.20539345060072L312.5561564444444,152.67095449992587L313.53722266666665,182.3462209020342L313.9123362222222,162.507709639413L316.13416266666667,178.3028621673584L316.8555348888889,231.30740577833993L317.31721311111113,185.95858679498946L317.6634717777778,217.2953553199768L318.9330868888889,121.42439079284668L320.60667044444443,191.93958353996277L321.38575244444445,205.98906418255396L321.501172,178.56660693032399L323.8961277777778,139.32577766690932L324.4155157777778,180.0878903184618L325.45429177777777,122.88326913969856L326.9836008888889,187.08816940443856L327.0413106666667,198.2342105593L327.733828,153.9575127533504L327.7626828888889,221.14771097046986L327.90695733333337,221.63590843336922L328.0512317777778,163.7719895499093L332.6391591111111,204.82583934920174L333.30282155555557,160.90341213771273L333.67793511111114,157.2663924012865L333.82220955555556,174.49930058206832L334.28388777777775,166.73167061805725L334.4281622222222,181.09041575023105L334.68785622222225,237.48441341945104L335.14953444444444,192.90410096304757L336.823118,153.17417539869035L338.4678466666667,199.8914111001151L339.04494444444447,180.91681160245622L340.54539866666664,223.47704975945607L341.6995942222222,222.66129003252303L341.9304333333333,211.98848710741316L343.834856,190.68108187402999L343.9214206666666,182.10931287493025L344.2388244444445,238.38293044907704L345.9989726666667,208.30569083350045L346.1432471111111,196.68089001519337L346.20095688888887,244.97975965908594L347.81683066666665,183.09886935779025L349.63468866666665,169.50471438680376L349.7212533333333,174.5591375146593L349.89438266666673,164.50280908175876L350.99086844444446,204.34142984662734L352.23162866666667,200.05275252887182L353.5589535555556,221.38224349703108L354.1649062222222,230.37672318731032L355.14597244444445,226.6317786829812L356.01161911111114,164.5131457192557L356.4444424444444,276.9890516485487L356.8484108888889,226.84891227313452L358.83939822222226,186.40421785627092L359.6473351111111,228.96875759533472L359.7627546666667,202.96460257257735L359.82046444444444,198.97183557919092L360.16672311111114,184.95381426811218L360.8592404444444,183.9160415445055L361.2054991111111,265.9242911338806L361.60946755555557,189.35311286790028L361.92687133333334,203.51417783328466L363.36961577777777,177.08159807750155L363.68701955555554,193.02550830159865L364.6680857777778,202.9175419807434L364.8412151111111,214.53014428274972L365.3028933333333,249.29206357683455L367.23617088888886,153.27850481442042L367.3227355555556,170.77663442066736L368.0729626666666,212.915766954422L369.16944844444447,159.42694224630083L369.19830333333334,188.52110985347204L369.94853044444443,243.96908048221044L370.92959666666667,160.79336868013655L372.08379222222226,238.72981773103987L372.25692155555555,204.50803589820862L373.0648584444445,213.5439905439104L374.7095871111111,237.73082344872608L376.4408804444445,211.5553755760193L378.63385200000005,280.43102352959767L379.2686595555556,239.66326103891646L381.34621155555556,228.2060293129512L381.7213251111111,213.46829554012842L383.1063597777778,257.32799669674466L383.5103282222222,252.1241096428462L383.6546026666667,177.01052566937037L385.99184866666667,174.23722508975436L386.5689464444444,247.83934869085036L389.28130600000003,273.98635475976124L390.9260346666666,194.33723402023315L391.09916400000003,241.56821986607142L392.9458768888889,191.06084094728743L394.1289273333333,214.24418537957325L394.2443468888889,217.84165624209814L395.1388484444444,223.60828011376515L396.0044951111111,219.42232714380538L396.812432,226.42395448684692L397.50494933333334,215.0702817440033L397.5626591111111,222.86051106452942L398.8611291111111,252.1524872439248L399.149678,150.24646728379383L400.2173088888889,198.4847937652043L400.4192931111111,286.98188359396795L401.5734886666667,161.66703925813948L403.5356211111111,201.8563994680132L404.14157377777775,213.81897078241622L404.92065577777777,224.19284585544042L405.64202800000004,244.341969864709L407.45988600000004,218.80142266409737L408.35438755555555,249.73005451474867L410.08568088888893,271.43603021757946L411.23987644444446,255.2335114479065L412.3652171111111,215.01981840814864L412.71147577777776,205.54388254029408L412.9711697777778,224.11028116089955L413.4039931111111,213.878422498703L413.9233811111111,210.14740998404366L414.32734955555554,239.11644649505615L414.7024631111111,213.1969748565129L414.84673755555553,177.3701892920903L415.13528644444443,206.63083454540796L417.1262737777778,202.38292595318384L419.4923746666667,226.84249200139723L419.7520686666667,204.34541041510445L420.3003115555556,229.59075352123804L423.3300748888889,255.2843600000654L423.3589297777778,203.87069552285328L424.5131253333334,176.22320774623324L425.6961757777778,217.10647092546736L425.72503066666667,197.93412705830164L426.24441866666666,223.95125102996826L427.4274691111111,253.5139058658055L428.11998644444446,214.13054656982422L428.49510000000004,261.6616159166609L428.9856331111111,212.61452780451094L429.7647151111111,212.43199947902136L430.4283775555556,240.92221212387085L431.32287911111115,248.94113152367726L431.351734,234.5556138583592L431.38058888888884,166.02653217315674L431.6691377777778,245.9462673664093L432.0442513333333,192.73768751961842L432.21738066666666,213.54097301619393L432.62134911111116,210.52036356925964L434.6411913333333,201.6844003881727L435.42027333333334,261.0497640201024L436.3147748888889,266.10007817404613L436.80530799999997,238.35994587625777L438.3346171111111,257.9025468145098L438.82515022222225,216.83116967337472L439.0271344444444,177.88785580226352L440.58529844444445,257.3826332092285L440.9027022222222,217.7351439339774L442.6917053333333,246.20737981796265L442.77827,208.93584050451003L442.8071248888889,223.51082038879395L444.22101444444445,240.9220837184361L445.6637588888889,183.63483364241463L445.8368882222223,241.1138572352273L445.8657431111111,238.66400994573317L446.03887244444445,164.2164007595607L447.27963266666666,231.15376867566786L447.7701657777778,221.7017162186759L449.010926,244.7388710635049L450.0208471111111,250.549987418311L451.088478,291.80016912732805L451.3770268888889,271.60270047187805L451.4347366666667,237.4888434069497L453.2237397777778,299.49024220875333L453.5122886666667,225.00180009433203L453.71427288888896,190.8256021908351L455.07045266666665,246.62771500859938L457.1191497777778,185.2356641973768L462.34188466666666,289.0928689411708L462.4861591111111,237.72010159492493L462.71699822222223,260.4248789719173L463.2363862222222,250.9662778377533L464.39058177777775,251.21474235398426L465.0830991111111,295.2450943333762L465.2562284444445,274.6800651209695L466.5835533333333,260.8943292413439L467.7954586666667,241.54337341444833L467.968588,224.3163076809474L468.1994271111111,189.7873158454895L471.2291904444445,270.82488455091203L473.04704844444444,260.9996859005519L473.33559733333334,296.7127684525081L473.47987177777776,294.080842256546L474.460938,279.5969018254961L474.98032600000005,266.099371944155L478.356348,250.02673527172632L479.30855933333333,245.70274645941598L481.7612248888889,257.3862927641187L482.91542044444446,200.38769810540333L483.4925182222222,271.76872869900296L483.75221222222217,260.06624259267534L484.3581648888889,236.15297746658325L485.31037622222226,277.356034381049L486.1183131111111,244.52693789345875L486.6954108888889,234.01355031558447L486.95510488888885,303.5331515244075L489.2346411111111,308.47233077457975L489.7251742222223,247.10101744106836L491.31219311111107,226.6796097074236L492.7260826666667,260.1069471154894L495.58271666666667,266.0330505371094L495.6981362222223,211.23802154404774L497.31401,223.5768849849701L498.352786,251.23368215560913L499.24728755555554,275.12351328986034L499.30499733333335,232.50093429429188L499.651256,221.31354658944264L500.7477417777778,311.217574766704L501.90193733333336,284.78396776744296L502.01735688888886,312.57854396956304L502.07506666666666,223.69206465993605L502.6810193333333,258.4751708507538L502.7098742222222,226.052220753261L503.14269755555557,277.4819359098162L503.48895622222227,266.9570560455322L504.26803822222223,345.62259115491594L504.32574800000003,226.5716849395207L504.3834577777778,223.12252235412598L506.51871955555555,271.7933825424739L507.87489933333336,280.51634894098555L509.2310791111111,240.242883171354L510.96237244444444,236.34154084750585L513.0976342222222,254.93991242136275L513.3573282222222,232.73026640074593L516.531366,241.25953320094519L516.6467855555555,290.1820680413927L517.7721262222223,253.05260934148512L518.5800631111111,260.8704458304814L518.6954826666667,277.3430654321398L519.3014353333333,255.97312675203597L519.6765488888889,269.2381143910544L520.0805173333333,288.5856032712119L520.7730346666667,301.6774361814771L522.0426497777778,234.4632261480604L524.8127191111112,189.50045810426985L526.919126,218.39469844954354L528.1598862222222,236.6997278077262L529.4583562222222,271.76571117128645L530.5836968888889,270.6686793395451L531.4493435555555,321.62920103754317L532.5169744444445,311.6420189312526L534.4502520000001,237.79547558512007L535.2581888888889,246.3883672782353L535.489028,289.16612424169267L537.3645957777778,227.9215470722743L537.9128386666666,246.31973457336426L538.0571131111111,230.04633600371224L542.5296208888889,194.1237599849701L543.8858006666667,248.39688508851185L545.0688511111111,270.6668816634587L545.8190782222222,217.58246987206593L547.4060971111111,277.36450913974215L547.665791111111,255.46990585327148L548.4160182222222,241.8069897719792L549.5702137777778,318.45752259663175L553.3502042222223,225.99488772664748L553.667608,233.9117248058319L554.186996,274.059417452131L555.6874502222222,258.05149711881364L555.8894344444444,288.9412863254547L558.4575195555556,253.0727047920227L558.6595037777778,274.2407901287079L559.7559895555556,277.9013722624098L559.9291188888889,327.63363177435735L560.3330873333333,264.3725756577083L560.5927813333334,245.25165816715784L563.6802544444445,244.3872969831739L564.8921597777778,220.442508322852L566.2194846666666,318.5407935210637L566.8542922222222,228.14606397492543L569.7397811111111,298.1674094200134L570.1726044444445,228.22695939881459L571.8750428888889,291.2907847676958L572.7983993333334,309.3185867922647L573.1735128888889,301.9244240352086L573.2889324444445,287.81497805459156L574.8182415555556,223.8778031212943L574.9336611111111,279.8774677004133L575.3664844444445,341.76355842181613L577.6460206666667,295.1259982926505L578.9733455555556,304.3559735502515L579.0022004444444,304.0309793949127L579.11762,243.9686952659062L580.2718155555556,288.0979836327689L580.675784,287.62885437692916L581.0797524444445,309.1306654385158L581.5125757777778,259.9167786666325L582.1762382222222,217.96948385238647L582.4359322222222,235.33118268421717L582.8399006666667,269.715140581131L586.7353106666667,264.91996802602495L587.1392791111111,294.90205921445573L587.5432475555556,268.8258045400892L587.8029415555555,331.30134040968755L589.1879762222222,227.81895112991333L589.8227837777778,311.17436633791243L590.2556071111112,284.20627171652654L590.4287364444444,332.374424627849L591.2366733333333,275.6383548804692L594.69926,250.84095413344247L595.5071968888889,278.2847266878401L596.3728435555556,192.78365666525704L597.6424586666667,272.4298882825034L597.9310075555555,276.65474809919084L598.7100895555556,267.51266636167253L599.0274933333334,256.73514880452836L599.9797046666667,256.44803425243924L600.7587866666667,306.4180364268167L601.0761904444445,296.83456100736345L602.2880957777778,261.5952945096152L603.7019853333334,230.83018698011122L606.8760231111112,272.02207262175426L608.1456382222223,270.8375324862344L609.3286886666667,255.57333643095834L611.2908211111112,239.44587063789368L611.319676,263.88996383122037L612.8489851111111,325.8818606308528L612.9066948888889,323.52947306632996L613.0798242222222,259.17459525380815L614.984246888889,254.4463861329215L615.9364582222222,268.6352508749281L617.2637831111111,263.0362602983202L617.8120260000001,282.3471536295755L618.2737042222222,225.88497267450606L623.4098744444444,316.33632901736667L627.0455904444444,291.93653569902693L627.16101,278.84219888278415L630.017644,218.95557338850838L630.9410004444445,340.13351563044955L631.344968888889,284.75822247777666L631.4315335555556,338.667446579252L632.1240508888889,310.60077926090787L633.2782464444444,319.84179738589694L633.393666,277.89771270751953L634.8652653333334,310.99735944611683L635.2692337777778,267.44024569647655L636.3657195555556,305.2366422244481L637.0005271111112,286.6080311707088L638.2701422222223,253.64821795054846L638.4432715555556,266.55437660217285L638.4721264444445,256.19603858675276L638.9338046666667,260.41216683387756L639.2800633333334,317.43149897030423L641.4153251111112,271.325601543699L642.0212777777779,293.7272136892591L642.3963913333333,371.1810509136745L642.6849402222222,246.6008140700204L642.9157793333334,297.2719099181039L646.1763817777778,311.58603416170394L647.2440126666667,246.1757278782981L649.6678233333333,306.5739206245967L651.0528579999999,293.1996599606105L653.0438453333334,321.27621449743L653.0727002222222,259.5189786297934L654.1691860000001,288.1869043963296L654.659719111111,290.4991652624948L654.9194131111112,262.1166847773961L655.9004793333334,323.26136251858304L656.9681102222223,292.04715698105946L658.295435111111,347.24255411965504L659.9978735555555,323.08480504580905L660.2287126666666,295.9371354239328L660.3441322222222,287.47393321990967L661.7868766666668,265.59287670680453L663.8067188888889,268.785934652601L663.8932835555556,249.5152322224208L664.6723655555555,321.21567133494784L666.2016746666667,329.68516540527344L666.8076273333332,315.92562423433577L667.153886,271.25600579806735L667.3847251111112,304.75460822241644L667.5001446666666,286.3349770137242L667.6155642222222,334.80443327767506L669.6354064444445,243.6236698627472L671.6263937777777,336.6171970026834L673.2422675555556,351.7575460161481L673.6173811111112,262.45689497675215L675.3486744444444,214.28135875293188L676.0411917777778,233.46930388041906L676.4740151111112,220.32668662071228L677.1665324444446,328.19001252310613L677.541646,333.8273321219853L677.8013400000001,316.13017409188404L678.7246964444445,270.95213433674405L681.4370560000001,307.6712734699249L681.5813304444445,258.30394220352173L681.956444,257.3547050271715L682.2738477777779,283.3435798031943L685.5344502222222,317.5341591153826L685.5633051111112,237.5992078781128L685.7364344444444,329.44870679719105L685.8229991111111,355.0304079396384L686.1692577777778,317.00583495412553L686.6020811111111,281.91763745035445L689.747264,279.181510244097L692.2576393333334,289.66722645078386L693.642674,297.2982972349439L695.3739673333333,253.48289595331465L695.6625162222222,339.7803364821843L695.7779357777778,307.2296871798379L695.8067906666668,367.9849112374442L698.5480051111111,286.42672269684925L700.5389924444445,320.3775048596518L701.722042888889,258.4468574523926L703.3956264444445,343.22577530997137L704.2324182222222,259.229745388031L704.6363866666667,313.10513465745106L706.887068,297.20745038986206L706.9736326666666,207.05470088550024L708.2721026666667,329.09462881088257L710.3207997777778,298.0528075695038L710.782478,241.55704859324865L711.3884306666666,385.79789096968517L711.5904148888889,259.45670199394226L716.7842948888889,294.1542259625026L717.3613926666667,341.0840368611472L718.3424588888888,268.7784229346684L718.804137111111,310.81804125649586L719.121540888889,320.04172464779447L720.8239793333333,264.9197754178728L720.8528342222222,267.68678413118636L720.9682537777778,287.550719669887L721.3433673333334,261.81210708618164L721.7761906666666,337.2066421508789L723.5363388888888,287.22431305476596L725.2387773333334,341.8079867022378L730.3460926666667,310.83325730051314L731.817692,347.87225437164307L732.7410484444445,305.72496809278215L733.0007424444444,329.301618371691L733.5489853333332,259.6008370944432L734.0683733333334,273.74206342015947L735.5976824444444,254.8986300740923L736.1747802222222,317.508542231151L736.8095877777778,331.61599792752946L737.4732502222222,307.14224307877674L737.9637833333334,321.381057534899L738.050348,293.090258530208L738.1369126666667,281.62256176131115L739.2045435555555,304.2754633426666L740.0124804444445,283.6280620438712L740.5318684444444,327.1670064244951L740.5895782222221,289.50049199376787L743.3019377777778,312.9424449716295L744.0810197777778,308.8448349407741L744.8312468888889,292.84776486669267L745.5526191111111,281.5715848037175L745.6391837777778,337.9276386669704L748.697802,375.47255315099443L748.8132215555556,235.50074206079756L749.246044888889,307.40585943630765L749.3037546666666,289.2477258954729L749.4480291111112,248.79449251719885L749.6211584444444,330.3135174001966L750.2271111111111,296.01591215814864L751.265887111111,295.2274385860988L751.7275653333334,229.28424974850245L753.9493917777777,271.0499792780195L754.9881677777778,307.1999613216945L755.219006888889,335.3690961769649L755.3921362222222,245.90132546424866L756.1423633333334,374.27331059319636L756.2577828888889,356.83521052769254L756.9503002222223,257.3647206510816L757.2677040000001,303.41129476683477L757.9313664444444,257.7202752998897L759.2009815555556,294.00951303754533L761.4805177777778,249.47889348438807L762.3173095555555,267.83021300179615L763.6446344444445,242.55238332067213L767.0206564444444,335.73068588120594L767.0783662222223,297.13727681977406L767.3380602222222,315.22305389813016L767.4534797777778,313.41247306551253L767.4823346666666,269.07272819110324L767.6843188888889,342.0308343342372L768.1459971111111,255.60646503312245L769.733016,294.4693328993661L769.7907257777778,316.3140506744385L771.0026311111111,336.6349811553955L771.4065995555555,330.7502242837633L773.657280888889,344.71238923072815L773.8592651111112,298.1233021531786L774.6094922222222,372.39788501603266L780.8998580000001,297.7999772684915L781.5923753333333,242.66525169781275L782.3714573333334,293.881171805518L783.006264888889,288.1496026175363L783.2948137777778,308.99449147496904L783.7564920000001,297.2430186952863L785.6897695555556,328.44515412194386L786.9593846666667,293.8290391990117L787.3056433333333,321.33008057730535L787.5076275555555,302.5407701219831L787.9404508888889,333.2303110531398L789.9891480000001,366.7162013394492L790.0468577777779,264.28500315121244L791.1144886666666,319.2113267013005L792.4995233333333,289.0201914651053L793.9134128888888,298.2694275379181L794.432800888889,256.06583547592163L795.442722,267.5498397350311L796.5103528888889,319.99601231302535L797.6934033333333,315.4308780942644L799.3381320000001,269.10624200957164L800.896296,316.87993342535833L801.6176682222223,328.69483848980497L805.6573526666667,380.3763246025358L806.4364346666666,367.6341075897217L807.4463557777777,369.47004849570135L809.466198,332.5518167359488L809.6104724444444,306.06697596822465L809.985586,281.7801152297429L810.6492484444445,286.8867993695395L810.9955071111111,324.14748842375616L815.4968697777778,302.96540689468384L816.5356457777777,300.981671333313L817.1704533333333,330.7519577571324L817.4590022222222,264.22465259688244L819.6519737777778,275.4551203250885L819.6808286666667,339.26716416222706L822.3643333333333,300.50573658943176L824.9324184444446,300.52384175573076L824.9901282222222,317.50751498767306L826.5482922222222,321.3823415892465L826.6348568888889,299.81921693256925L828.6546991111111,337.67326750074113L831.5113331111112,285.1725868156978L835.4067431111112,365.9504555293492L837.542004888889,341.10169260842457L838.8116200000001,298.3243208612714L838.9847493333334,295.2312907491411L840.2832193333334,313.80642093930925L843.1398533333333,299.01616934367587L847.0641182222223,303.76042914390564L847.6989257777778,335.7122597013201L848.0740393333334,280.8969426495688L849.3436544444444,255.84960072381153L850.3247206666667,299.4517205783299L850.4401402222222,319.459534406662L850.988383111111,291.7417446545192L854.2778404444445,283.851487500327L855.1434871111112,251.02649998664856L857.1056195555554,344.5817367008754L857.509588,318.8591747965131L858.6637835555556,360.71356827872137L860.3950768888889,315.44968949045455L860.6836257777778,337.863949571337L861.0010295555555,317.1868224143982L861.1164491111111,385.0139115878514L862.0398055555555,315.25791597366333L862.2417897777777,305.12891006469727L862.8477424444445,337.2913897378104L863.8576635555556,316.2230112212045L864.4347613333333,321.30228080068315L864.4924711111112,289.1498167514801L864.9830042222221,333.81904997144426L865.3869726666667,321.84453695161L867.1759757777778,350.38733162198747L867.2336855555556,300.8069115366254L868.8784142222222,254.85529323986597L871.0425308888889,285.7336543628148L872.831534,300.8978225844247L877.1309124444444,302.2783736160823L878.4582373333334,337.8699204240526L879.1218997777778,311.7795411518642L883.3058586666667,334.93611305100575L884.3734895555556,337.92667562620977L884.7197482222223,332.0527048110962L885.4699753333333,350.89395526477267L885.9316535555555,318.75773450306485L885.9893633333334,334.6572806494577L886.2202024444445,316.32612078530445L886.2779122222223,318.1445343494415L887.4898175555556,335.0148897852216L889.1345462222223,294.8724617617471L889.5673695555555,308.5033406870706L889.5962244444445,319.2758504322597L891.1255335555555,285.8177599225725L891.8180508888889,341.10548056874956L892.1065997777778,308.0453827040536L892.4528584444445,309.85371644156317L894.2130066666666,338.3743611744472L896.1174293333335,319.86972556795394L896.3771233333334,301.38094803265165L897.3004797777778,333.927295752934L897.5601737777778,304.00696757861544L897.791012888889,358.4883662973132L898.021852,322.98272272518705L898.9163535555555,233.44856640270777L898.9740633333333,252.55324060576302L902.0903913333333,298.540812424251L902.1481011111111,320.78795283181324L902.8694733333334,305.9456328323909L903.244586888889,340.0965348652431L903.3022966666666,377.03084940569744L903.5619906666666,307.89482733181546L905.3798486666667,330.86822887829373L906.6494637777778,316.5606533118657L906.7937382222221,267.7157395567213L908.669306,326.80702178818837L910.3717444444445,345.260166815349L911.4393753333333,337.99505152021135L911.5836497777779,317.99943620818L911.7279242222222,302.2293869427272L912.6801355555556,302.6122277464185L913.1418137777778,311.3701204231807L914.1517348888889,346.21325615474154L914.4402837777778,299.6639105592455L914.4979935555556,326.53088590076993L914.6134131111111,316.99023369380404L914.7288326666667,329.3751946857997L916.229286888889,393.3170564174652L917.9894351111112,332.37577288491383L918.01829,370.8333931991032L918.0471448888889,306.27255306925093L920.8749240000001,290.6967170238495L922.4907977777777,314.2901242119925L923.7604128888888,314.8194114140102L924.1932362222223,310.99755205426897L924.7414791111112,348.0231307574681L925.0588828888889,312.29027376856124L926.3573528888888,338.4214217662811L926.9055957777778,364.7614212036133L927.3961288888889,335.80638088498796L932.2437502222223,345.92960854939054L933.9461886666668,351.75780282701766L934.7541255555556,250.3825467314039L936.1103053333334,340.1543815135956L936.19687,305.36999126843045L936.456564,289.6385920388358L938.3898415555557,277.20496538707187L938.8515197777779,333.7743648801531L939.0246491111112,337.14821767807007L941.4196048888889,328.96789264678955L941.5350244444445,291.1155113492693L942.1409771111112,290.21859938757757L943.6991411111111,265.1946914536612L945.805548,340.4224920613425L946.2095164444445,311.6124856812613L947.1617277777779,320.0058995315007L947.3925668888888,362.1194793837411L947.5079864444444,307.09210075650896L949.1527151111111,337.5472375665392L949.210424888889,392.5589186293738L949.8163775555555,337.9141560963222L951.4322513333334,393.02226964065005L952.3844626666668,306.2584926741464L953.5098033333333,369.07372512136186L955.154532,288.8263634613582L958.0688757777777,338.4720777102879L958.6171186666667,311.28370356559753L962.685658,274.12156568254744L965.2537431111111,342.8882616247449L965.4845822222222,341.27985514913286L967.0716011111111,321.36308077403476L967.619844,338.5222842352731L969.0914433333332,350.05951254708424L969.95709,334.0915905066899L970.3322035555556,279.4393483570644L975.0644053333334,292.94355532101224L975.122115111111,326.29956351007735L976.8534084444445,347.0160469327654L977.6613453333333,355.4228149482182L980.2582853333333,304.98265627452304L980.3159951111111,305.7421102183206L980.604544,352.80430712018693L982.7109508888889,340.95550302096774L984.499954,313.632752588817L984.7019382222222,344.8020804268973L985.6830044444445,322.58113472802296L988.5396384444446,415.8218423298427L990.0112377777779,374.5031563213893L991.1365784444446,336.1856263365064L991.251998,333.5516456535884L992.7235973333333,326.71668856484547L993.5026793333334,293.4277080127171L994.3971808888889,341.7605408940996L994.5414553333334,337.6420007773808L995.2051177777779,354.2290938241141L996.0996193333334,343.5417168821607L997.3692344444444,369.82277822494507L998.9562533333333,344.7182958807264L999.4179315555556,316.7860048498426L1000.4278526666667,325.51468529020036L1000.6009819999999,354.7319295065744L1000.9472406666667,315.35511888776506L1001.6686128888889,310.9914527961186L1003.3999062222222,324.75471772466386L1003.6884551111111,290.0158472061157L1003.8904393333333,304.3347866535187L1004.3809724444445,310.9637814249311L1005.0446348888888,375.2554837635585L1005.535168,319.84475071089605L1006.2853951111111,390.5127459253584L1007.4395906666667,343.1520705904279L1008.8534802222222,292.37908502987455L1009.170884,357.69430708885193L1009.8922562222222,285.55658326830184L1011.50813,336.7375770977565L1011.8543886666666,341.9905792304448L1012.2295022222222,327.9321744101388L1015.692088888889,368.66770713669916L1016.9328491111111,364.58435010910034L1017.2502528888889,327.99213974816456L1017.3079626666666,355.2836876596723L1017.4233822222222,370.4542119503021L1018.5775777777778,332.7975847380502L1019.5297891111111,370.22333897863115L1019.9914673333333,331.52181254114424L1020.5397102222222,291.3486956187657L1022.1267291111111,306.7258884566171L1025.2142022222222,335.1917682715825L1027.4071737777779,351.9100274699075L1027.6380128888889,367.390522480011L1027.6668677777777,351.47287116731917L1029.8309844444445,341.71129740987504L1030.206098,365.3057960442134L1030.6100664444446,317.8804685728891L1031.5911326666667,334.18924283981323L1034.4766215555555,348.3497941834586L1035.659672,313.9013125555856L1036.438754,337.894638470241L1037.1601262222223,280.3413323334285L1037.4198202222221,332.39779441697254L1037.5929495555556,278.4025386742183L1037.8237886666668,331.5207210949489L1038.025772888889,344.84772855894903L1038.6028706666666,313.74510734421864L1038.9491293333333,293.2646331105913L1039.785921111111,268.2875931603568L1042.1808768888889,342.0298712934766L1044.8643815555556,355.4796343530927L1045.8165928888889,331.91903475352694L1047.836435111111,328.5558396066938L1048.5000975555556,358.0045988219125L1049.6254382222223,280.1327377046858L1050.6065044444445,349.1947661467961L1052.308942888889,305.533900805882L1052.568636888889,324.05593534878324L1053.6939775555556,305.46443346568515L1055.1944317777777,302.4589758600507L1056.2909175555556,311.11690490586415L1056.9257251111112,345.1245706762586L1057.8202266666667,285.2342856270926L1058.8590026666666,335.3960613182613L1058.9744222222223,349.89194345474243L1059.2052613333333,317.3007822377341L1061.0231193333334,333.10575778143743L1061.109684,350.8226902484894L1063.5334946666667,336.7852797167642L1064.1394473333335,337.7288028512682L1064.485706,298.96211065564836L1064.8031097777778,317.3851446083614L1065.264788,312.010221515383L1065.6687564444444,299.2805561338152L1066.2747091111112,328.3524453980582L1066.9383715555557,342.4119416645595L1067.4577595555556,360.26068231037686L1068.0348573333333,327.16668541090826L1072.6227846666666,317.04763092313493L1072.6804944444445,345.2862331186022L1073.6327057777778,324.14639697756087L1074.9600306666666,298.24008689607894L1077.4126962222222,306.5038112572261L1079.2305542222223,358.89926368849615L1082.2603175555555,301.2168458870479L1082.664286,294.24089963095525L1084.0493206666667,329.4729754243578L1085.4055004444444,287.5116202150072L1086.7905351111112,332.2312525681087L1087.5984720000001,331.88577774592807L1089.156636,306.31428483554294L1091.0322037777778,367.08806347846985L1091.0610586666667,385.00938529627666L1091.4073173333334,341.11318489483426L1091.4361722222222,332.1220437458583L1093.6579986666668,324.31126955577304L1093.831128,361.7676484925406L1095.5047115555556,318.4404446738107L1096.0818093333332,360.0750722544534L1096.8320364444444,392.83264691489086L1097.8419575555556,362.58058329990934L1100.554317111111,317.6068365914481L1101.823932222222,359.20518963677546L1102.978127777778,325.24702416147505L1104.2765977777779,390.76076102256775L1104.5362917777777,325.746713910784L1106.613843777778,412.3487000295094L1107.8257491111112,336.65629645756314L1108.2585724444446,334.3977090631212L1108.402846888889,330.94122736794606L1108.7779604444445,355.1895664760045L1109.2107837777778,325.522903238024L1111.6345944444445,299.0479496887752L1116.713054888889,374.6675794805799L1116.943894,296.6537661552429L1118.1269444444445,376.19804385730197L1118.1557993333333,359.000447171075L1119.1080106666666,336.58869099617004L1119.6562535555556,354.9497693266187L1120.4353355555556,336.3795827456883L1121.2721273333334,347.2881380489894L1121.4164017777778,376.5297150952475L1121.4741115555555,384.25641582693373L1122.0512093333334,327.9792992046901L1125.3118117777778,336.84363998685564L1125.6292155555557,328.99113403047835L1125.9466193333333,340.9084424291338L1127.851042,303.47042546953475L1127.9087517777778,387.74946096965243L1128.1973006666667,399.55614808627536L1128.4281397777777,356.19466001646856L1129.438060888889,348.03224754333496L1131.0250797777778,340.36239831788197L1133.3046160000001,362.22502865110124L1133.4488904444445,319.5934612751007L1135.8438462222223,317.44209241867065L1138.7293351111111,341.7356302397592L1139.046738888889,333.05606487819125L1139.7392562222221,361.6629338605063L1142.3650511111111,345.9163827896118L1142.422760888889,330.40417163712635L1143.2884075555555,294.7537509373256L1143.3172624444444,376.711537190846L1144.1251993333333,337.6654347692217" style="fill: none;" fill="none"></path></g></g></g></g></g></g><g transform="translate(40, 377)" clip-path="url(#clip_1)"><clipPath id="clip_1"><rect width="1298" height="22"></rect></clipPath><g><g><line x1="0" y1="0" x2="0" y2="5" style="visibility: inherit;" fill="rgb(0, 0, 0)" stroke="rgb(204, 204, 204)" stroke-width="1px"></line><line x1="144.27444444444444" y1="0" x2="144.27444444444444" y2="5" style="visibility: inherit;" fill="rgb(0, 0, 0)" stroke="rgb(204, 204, 204)" stroke-width="1px"></line><line x1="288.5488888888889" y1="0" x2="288.5488888888889" y2="5" style="visibility: inherit;" fill="rgb(0, 0, 0)" stroke="rgb(204, 204, 204)" stroke-width="1px"></line><line x1="432.8233333333333" y1="0" x2="432.8233333333333" y2="5" style="visibility: inherit;" fill="rgb(0, 0, 0)" stroke="rgb(204, 204, 204)" stroke-width="1px"></line><line x1="577.0977777777778" y1="0" x2="577.0977777777778" y2="5" style="visibility: inherit;" fill="rgb(0, 0, 0)" stroke="rgb(204, 204, 204)" stroke-width="1px"></line><line x1="721.3722222222223" y1="0" x2="721.3722222222223" y2="5" style="visibility: inherit;" fill="rgb(0, 0, 0)" stroke="rgb(204, 204, 204)" stroke-width="1px"></line><line x1="865.6466666666666" y1="0" x2="865.6466666666666" y2="5" style="visibility: inherit;" fill="rgb(0, 0, 0)" stroke="rgb(204, 204, 204)" stroke-width="1px"></line><line x1="1009.9211111111111" y1="0" x2="1009.9211111111111" y2="5" style="visibility: inherit;" fill="rgb(0, 0, 0)" stroke="rgb(204, 204, 204)" stroke-width="1px"></line><line x1="1154.1955555555555" y1="0" x2="1154.1955555555555" y2="5" style="visibility: inherit;" fill="rgb(0, 0, 0)" stroke="rgb(204, 204, 204)" stroke-width="1px"></line><line x1="1298.47" y1="0" x2="1298.47" y2="5" style="visibility: inherit;" fill="rgb(0, 0, 0)" stroke="rgb(204, 204, 204)" stroke-width="1px"></line></g><g transform="translate(0, 8)"><text x="0" y="0" dx="0em" dy="0.95em" style="text-anchor: middle; visibility: hidden; font-family: Roboto, sans-serif; font-size: 12px; font-weight: 200;" fill="rgb(33, 33, 33)" stroke="none" stroke-width="1px">-5k</text><text x="144.27444444444444" y="0" dx="0em" dy="0.95em" style="text-anchor: middle; visibility: inherit; font-family: Roboto, sans-serif; font-size: 12px; font-weight: 200;" fill="rgb(33, 33, 33)" stroke="none" stroke-width="1px">0</text><text x="288.5488888888889" y="0" dx="0em" dy="0.95em" style="text-anchor: middle; visibility: inherit; font-family: Roboto, sans-serif; font-size: 12px; font-weight: 200;" fill="rgb(33, 33, 33)" stroke="none" stroke-width="1px">5k</text><text x="432.8233333333333" y="0" dx="0em" dy="0.95em" style="text-anchor: middle; visibility: inherit; font-family: Roboto, sans-serif; font-size: 12px; font-weight: 200;" fill="rgb(33, 33, 33)" stroke="none" stroke-width="1px">10k</text><text x="577.0977777777778" y="0" dx="0em" dy="0.95em" style="text-anchor: middle; visibility: inherit; font-family: Roboto, sans-serif; font-size: 12px; font-weight: 200;" fill="rgb(33, 33, 33)" stroke="none" stroke-width="1px">15k</text><text x="721.3722222222223" y="0" dx="0em" dy="0.95em" style="text-anchor: middle; visibility: inherit; font-family: Roboto, sans-serif; font-size: 12px; font-weight: 200;" fill="rgb(33, 33, 33)" stroke="none" stroke-width="1px">20k</text><text x="865.6466666666666" y="0" dx="0em" dy="0.95em" style="text-anchor: middle; visibility: inherit; font-family: Roboto, sans-serif; font-size: 12px; font-weight: 200;" fill="rgb(33, 33, 33)" stroke="none" stroke-width="1px">25k</text><text x="1009.9211111111111" y="0" dx="0em" dy="0.95em" style="text-anchor: middle; visibility: inherit; font-family: Roboto, sans-serif; font-size: 12px; font-weight: 200;" fill="rgb(33, 33, 33)" stroke="none" stroke-width="1px">30k</text><text x="1154.1955555555555" y="0" dx="0em" dy="0.95em" style="text-anchor: middle; visibility: inherit; font-family: Roboto, sans-serif; font-size: 12px; font-weight: 200;" fill="rgb(33, 33, 33)" stroke="none" stroke-width="1px">35k</text><text x="1298.47" y="0" dx="0em" dy="0.95em" style="text-anchor: middle; visibility: hidden; font-family: Roboto, sans-serif; font-size: 12px; font-weight: 200;" fill="rgb(33, 33, 33)" stroke="none" stroke-width="1px">40k</text></g><line x1="0" y1="0" x2="1298.47" y2="0" fill="rgb(0, 0, 0)" stroke="rgb(204, 204, 204)" stroke-width="1px"></line></g></g></g></g></svg>